<svg width="133" height="125" viewBox="0 0 133 125" fill="none" xmlns="http://www.w3.org/2000/svg">
<line x1="8.85751" y1="35.3959" x2="66.6442" y2="11.1576" stroke="white" stroke-width="4" stroke-dasharray="16 16"/>
<line y1="-2" x2="62.6642" y2="-2" transform="matrix(-0.922165 -0.386797 -0.386797 0.922165 128.254 40.1298)" stroke="white" stroke-width="4" stroke-dasharray="16 16"/>
<line y1="-2" x2="62.6642" y2="-2" transform="matrix(0 -1 -1 0 10.2732 91.397)" stroke="white" stroke-width="4" stroke-dasharray="16 16"/>
<line y1="-2" x2="62.6642" y2="-2" transform="matrix(0 -1 -1 0 121.513 89.4709)" stroke="white" stroke-width="4" stroke-dasharray="16 16"/>
<line y1="-2" x2="62.6642" y2="-2" transform="matrix(-0.922165 -0.386797 -0.386797 0.922165 70.4678 114.289)" stroke="white" stroke-width="4" stroke-dasharray="16 16"/>
<line x1="62.3104" y1="112.284" x2="120.097" y2="88.0461" stroke="white" stroke-width="4" stroke-dasharray="16 16"/>
<path d="M58.0726 42.0563C59.0464 42.1475 59.3532 42.1917 60.2019 42.3507C62.075 42.7069 63.4598 43.1544 65.2644 43.9993C67.2477 44.9237 68.7903 45.9658 70.5205 47.5526C71.6283 48.5683 72.9416 50.1197 73.7665 51.3886C74.5586 52.6074 75.5205 54.4415 76.2025 56.0253C76.6521 57.0675 77.1584 58.0537 77.9297 59.3962C79.0018 61.2538 80.5235 63.2822 81.8606 64.6276C83.0935 65.8729 84.0554 66.7148 84.8862 67.286C85.2108 67.5097 85.3269 67.601 85.3061 67.6186C85.2436 67.6687 84.5199 68.0072 84.2787 68.0955C83.558 68.3605 83.1888 68.4341 82.2596 68.493C81.5449 68.5401 80.4073 68.44 79.8713 68.284C79.5169 68.178 78.7576 67.8335 78.3228 67.5803C77.3549 67.0122 76.6104 66.6265 76.128 66.444C75.7349 66.2938 75.1125 66.1466 74.4216 66.0436C73.8529 65.9612 73.7337 65.9523 73.0965 65.9523C72.7123 65.9523 72.2567 65.97 72.084 65.9877C71.268 66.0789 70.4282 66.2585 69.9398 66.444C69.5348 66.6 68.7218 67.0151 68.0786 67.3949C67.3847 67.807 67.3073 67.8453 66.7951 68.0602C66.2769 68.2781 66.0834 68.3311 65.458 68.4223C64.5676 68.5548 63.561 68.5312 62.6289 68.3605C62.0661 68.2545 61.3484 67.9425 60.455 67.4125C59.788 67.0181 59.1209 66.6736 58.6414 66.4764C58.2841 66.3321 57.5426 66.1466 56.9589 66.0583C56.5598 65.9994 56.3127 65.9818 55.6903 65.97C54.9815 65.9553 54.1834 65.9906 54.0584 66.0377C53.9601 66.073 54.0107 65.9788 54.2281 65.7139C55.3657 64.3184 56.2204 62.5403 56.67 60.6297C56.8636 59.8054 57.0155 58.7367 57.0155 58.2039V57.9801L57.1584 57.9212C57.2358 57.8888 57.5128 57.7888 57.7748 57.7004C58.43 57.4826 58.5313 57.4414 59.1298 57.1705C59.5378 56.988 59.8594 56.8172 60.0977 56.6583C60.321 56.5052 60.4907 56.3492 60.4491 56.3256C60.4371 56.3197 60.2853 56.2697 60.1125 56.2196C59.0256 55.8899 58.4062 55.5837 57.888 55.1127C57.5277 54.7889 57.2746 54.3414 57.2746 54.0382C57.2746 53.417 57.215 51.5711 57.1793 51.1089C57.0482 49.4485 56.813 48.2268 56.4348 47.2229C56.1459 46.4575 55.5622 45.5419 55.1066 45.1356C54.9339 44.9826 54.374 44.5675 54.1268 44.4085C54.0375 44.3496 53.7695 44.1995 53.5313 44.0699C52.8999 43.7284 52.626 43.437 52.6796 43.1661C52.7481 42.8276 53.1054 42.5773 53.8439 42.3536C54.3413 42.2035 54.6212 42.1505 55.2585 42.0857C55.595 42.0504 55.8838 42.018 55.8987 42.0121C55.9166 42.0062 56.271 42.0003 56.6879 42.0003C57.2358 41.9974 57.62 42.015 58.0726 42.0563ZM57.1167 68.3929C57.7361 68.4665 58.29 68.6019 58.9124 68.8256C59.2609 68.9552 60.2912 69.4498 60.5086 69.594C60.5712 69.6352 60.723 69.7265 60.8511 69.7913C60.9762 69.859 61.1608 69.965 61.2591 70.0238C61.7713 70.3388 62.5813 70.6509 63.1203 70.7451C63.8558 70.8717 65.2585 70.8805 65.9642 70.7628C66.3454 70.698 66.9619 70.5066 67.3043 70.3477C67.623 70.1975 68.2632 69.8531 68.4806 69.7147C68.5878 69.6499 68.7814 69.5351 68.9124 69.4674C69.0435 69.3968 69.246 69.2878 69.3591 69.226C69.8624 68.9581 70.5503 68.699 71.1757 68.5489C71.667 68.4311 72.0542 68.3811 72.7689 68.3428C74.1179 68.2692 75.327 68.4105 76.268 68.7462C76.3841 68.7874 76.5539 68.8492 76.6462 68.8816C76.8904 68.964 77.7838 69.4027 78.1233 69.6058C78.5163 69.8413 79.2191 70.2387 79.3651 70.3123C79.5676 70.4095 80.1274 70.6038 80.4401 70.6833C81.262 70.8923 82.9118 70.907 83.8022 70.7157C84.3263 70.6008 84.9487 70.3447 85.6039 69.9738C85.7766 69.8766 86.1518 69.6647 86.4377 69.5027C86.8963 69.2437 87.4502 68.964 87.5038 68.964C87.5157 68.964 87.5664 68.9434 87.614 68.9169C87.7986 68.8227 88.4746 68.6107 88.8767 68.5254C89.3919 68.4135 89.8862 68.3546 90.5354 68.3281C90.9493 68.3134 91.0714 68.3163 91.2233 68.3546C91.5509 68.44 91.7683 68.6225 91.9112 68.9346C92.0095 69.1406 92.0244 69.3467 91.9648 69.5763C91.9053 69.8089 91.804 69.965 91.6194 70.1092C91.3752 70.3006 91.1965 70.3506 90.6664 70.38C89.1774 70.4625 88.3913 70.7215 86.9142 71.6106C86.7742 71.6931 86.396 71.8932 86.0744 72.0522C84.9547 72.6057 84.0732 72.8324 82.7063 72.9118C81.9142 72.959 80.8451 72.8795 80.0589 72.7175C79.5676 72.6145 78.5968 72.2524 78.1292 71.9963C77.8344 71.8344 77.4621 71.6224 77.1167 71.4193C76.3365 70.963 75.3895 70.5832 74.779 70.4801C74.4395 70.4242 73.7814 70.3771 73.3138 70.3771C72.8731 70.3771 72.0929 70.4507 71.8993 70.5096C71.8219 70.5331 71.7355 70.5537 71.7057 70.5537C71.6432 70.5537 70.9821 70.7598 70.8332 70.8275C70.1959 71.1101 70.2138 71.1013 69.4336 71.5576C68.7308 71.9668 67.9714 72.326 67.4175 72.5085C66.9589 72.6587 66.4854 72.7735 66.1876 72.8118C66.131 72.8176 65.9226 72.8441 65.726 72.8706C65.1661 72.9442 63.9869 72.9354 63.3466 72.853C62.6617 72.7676 62.3192 72.694 61.8249 72.5262C61.1012 72.2789 60.6605 72.0817 60.1185 71.7549C60.0173 71.6931 59.9279 71.643 59.919 71.643C59.913 71.643 59.7224 71.5341 59.4961 71.4045C58.9095 71.063 58.4389 70.8452 57.9089 70.6744C57.3579 70.4978 57.084 70.4448 56.5092 70.4065C54.8713 70.2976 53.7814 70.5096 52.5039 71.1837C52.3252 71.2809 52.0899 71.4134 51.9827 71.4811C51.7236 71.643 51.003 72.0316 50.6456 72.1935C50.2198 72.3908 49.3978 72.6587 48.9601 72.744C48.2096 72.8854 47.2478 72.9648 46.9202 72.9089C46.5182 72.8412 46.265 72.6675 46.1102 72.3554C46.0208 72.1788 46.0119 72.1346 46.0119 71.8932C46.0119 71.6636 46.0238 71.6047 46.0953 71.4516C46.2055 71.222 46.4169 71.0218 46.6283 70.9541C46.807 70.8952 47.087 70.8629 47.754 70.8216C48.6861 70.7598 49.1656 70.6244 50.1006 70.1534C50.4312 69.9856 50.7915 69.7913 50.9047 69.7206C51.1489 69.5616 51.8576 69.1819 52.1763 69.0376C53.1084 68.6107 53.9899 68.4017 55.0798 68.3458C55.6754 68.3134 56.6611 68.3369 57.1167 68.3929ZM56.7832 72.5291C57.5426 72.6057 58.3883 72.8029 59.0256 73.0473C59.5735 73.2563 59.7046 73.324 60.7677 73.9246C61.3067 74.2307 61.9708 74.5693 62.2269 74.6694C62.8523 74.9137 63.6206 75.0374 64.5646 75.0403C65.2912 75.0433 65.6456 75.0109 66.2174 74.8814C66.8695 74.7342 67.5306 74.4663 68.1084 74.1159C70.0887 72.9089 71.4377 72.4968 73.3913 72.4968C74.3472 72.4968 75.0768 72.5851 75.8213 72.7941C76.3752 72.9442 76.3275 72.9295 77.0423 73.2327C77.206 73.3034 77.4026 73.3947 77.477 73.4359C77.5515 73.4771 77.7093 73.5654 77.8284 73.6302C77.9476 73.6949 78.2007 73.8392 78.3913 73.9511C78.8261 74.2042 79.6658 74.6193 79.9011 74.6988C80.4699 74.8931 80.9523 74.9844 81.6194 75.0315C82.8284 75.1169 84.0643 74.9196 84.9636 74.4986C85.178 74.3985 85.455 74.2484 85.9761 73.9452C86.0744 73.8892 86.2412 73.795 86.3484 73.7391C86.4556 73.6832 86.5747 73.6125 86.6164 73.586C86.6581 73.5566 86.8576 73.4535 87.0631 73.3564C88.1917 72.8147 89.2668 72.5468 90.4907 72.5056C91.1578 72.482 91.2799 72.4997 91.5062 72.6528C91.7355 72.8088 91.8397 72.9383 91.9201 73.1591C92.081 73.6125 91.941 74.0688 91.5598 74.3279C91.3275 74.4898 91.1727 74.5251 90.4877 74.5722C89.1 74.6664 88.3526 74.9285 86.7802 75.8705C85.9493 76.3681 85.0381 76.7302 84.1566 76.9186C83.838 76.9833 83.7963 76.9863 82.209 76.9863C80.5146 76.9863 80.449 76.9833 79.9011 76.8509C79.1804 76.6772 78.4181 76.3416 77.2954 75.7086C77.0571 75.5732 76.7474 75.3995 76.6045 75.3171C75.6992 74.8107 74.645 74.5575 73.4359 74.5575C72.6706 74.5575 71.9976 74.637 71.4139 74.7989C71.265 74.8401 70.5443 75.1257 70.3776 75.2081C70.2108 75.2935 69.3293 75.7851 69.1864 75.8735C69.0494 75.9588 68.966 76.0059 68.5997 76.2002C68.0786 76.477 67.2954 76.7596 66.6492 76.9039L66.2918 76.9833L64.8028 76.9951C63.7993 77.001 63.2186 76.9951 63.0161 76.9716C62.0482 76.8626 61.0863 76.4946 59.7254 75.7174C58.6831 75.1198 58.2841 74.9343 57.7153 74.7871C57.0959 74.6282 56.7504 74.5811 56.0715 74.5664C54.4991 74.5281 53.6146 74.7459 52.221 75.5231C52.0006 75.6438 51.7266 75.8028 51.6105 75.8735C50.9375 76.2915 49.8654 76.7272 49.0792 76.9009C48.7487 76.9716 48.6563 76.9804 47.8523 76.9922C46.7772 77.0128 46.5807 76.9981 46.408 76.8832C46.2472 76.7773 46.0953 76.5565 46.0417 76.3504C45.9047 75.8499 46.1102 75.3965 46.5867 75.1493C46.6819 75.0992 46.9321 75.0639 47.3669 75.0433C48.0995 75.005 48.6266 74.9137 49.2579 74.7106C49.6629 74.5811 50.0441 74.3897 50.9851 73.851C51.8189 73.3711 52.1346 73.218 52.6528 73.0326C53.1947 72.8412 53.296 72.8118 53.7397 72.7058C54.1268 72.6175 54.1894 72.6057 54.7373 72.5409C55.1453 72.4938 56.3752 72.485 56.7832 72.5291Z" fill="white"/>
<rect width="13.1464" height="13.1464" transform="matrix(0.84594 0.533278 -0.84594 0.533278 11.1211 24.7199)" fill="#E6E6E6"/>
<rect width="13.1464" height="10.6913" transform="matrix(0.84594 0.533278 0 1 0 31.7305)" fill="#C0C0C0"/>
<rect width="13.1464" height="10.6985" transform="matrix(0.84594 -0.533278 0 1 11.1211 38.7412)" fill="#9A9A9A"/>
<rect width="13.1464" height="13.1464" transform="matrix(0.84594 0.533278 -0.84594 0.533278 11.1211 75.4439)" fill="#E6E6E6"/>
<rect width="13.1464" height="10.6913" transform="matrix(0.84594 0.533278 0 1 0 82.4545)" fill="#C0C0C0"/>
<rect width="13.1464" height="10.6985" transform="matrix(0.84594 -0.533278 0 1 11.1211 89.465)" fill="#9A9A9A"/>
<rect width="13.1464" height="13.1464" transform="matrix(0.84594 0.533278 -0.84594 0.533278 66.6606 0)" fill="#E6E6E6"/>
<rect width="13.1464" height="10.6913" transform="matrix(0.84594 0.533278 0 1 55.5396 7.01059)" fill="#C0C0C0"/>
<rect width="13.1464" height="10.6985" transform="matrix(0.84594 -0.533278 0 1 66.6606 14.0214)" fill="#9A9A9A"/>
<rect width="13.1464" height="13.1464" transform="matrix(0.84594 0.533278 -0.84594 0.533278 121.789 24.7199)" fill="#E6E6E6"/>
<rect width="13.1464" height="10.6913" transform="matrix(0.84594 0.533278 0 1 110.668 31.7305)" fill="#C0C0C0"/>
<rect width="13.1464" height="10.6985" transform="matrix(0.84594 -0.533278 0 1 121.789 38.7412)" fill="#9A9A9A"/>
<rect width="13.1464" height="13.1464" transform="matrix(0.84594 0.533278 -0.84594 0.533278 121.879 75.4439)" fill="#E6E6E6"/>
<rect width="13.1464" height="10.6913" transform="matrix(0.84594 0.533278 0 1 110.758 82.4545)" fill="#C0C0C0"/>
<rect width="13.1464" height="10.6985" transform="matrix(0.84594 -0.533278 0 1 121.879 89.465)" fill="#9A9A9A"/>
<rect width="13.1464" height="13.1464" transform="matrix(0.84594 0.533278 -0.84594 0.533278 66.821 100.164)" fill="#E6E6E6"/>
<rect width="13.1464" height="10.6913" transform="matrix(0.84594 0.533278 0 1 55.7 107.174)" fill="#C0C0C0"/>
<rect width="13.1464" height="10.6985" transform="matrix(0.84594 -0.533278 0 1 66.821 114.185)" fill="#9A9A9A"/>
</svg>
