<svg width="207" height="159" viewBox="0 0 207 159" fill="none" xmlns="http://www.w3.org/2000/svg">
<path d="M54.198 0.255474C58.5697 0.670067 59.9467 0.870681 63.7569 1.59288C72.166 3.21113 78.3826 5.24397 86.4842 9.0823C95.388 13.2817 102.313 18.0161 110.081 25.2247C115.054 29.8387 120.95 36.8868 124.653 42.651C128.209 48.1878 132.527 56.5198 135.589 63.715C137.607 68.4494 139.88 72.9296 143.343 79.0282C148.156 87.4671 154.987 96.6818 160.99 102.794C166.525 108.451 170.843 112.276 174.573 114.87C176.03 115.887 176.551 116.301 176.458 116.382C176.177 116.609 172.928 118.147 171.845 118.548C168.61 119.752 166.952 120.086 162.781 120.354C159.573 120.568 154.466 120.113 152.059 119.404C150.468 118.923 147.059 117.358 145.107 116.208C140.762 113.627 137.42 111.875 135.254 111.045C133.49 110.363 130.696 109.695 127.594 109.227C125.041 108.852 124.506 108.812 121.645 108.812C119.92 108.812 117.875 108.892 117.099 108.972C113.436 109.387 109.666 110.203 107.474 111.045C105.655 111.754 102.006 113.64 99.1179 115.365C96.003 117.238 95.6554 117.411 93.3559 118.388C91.0297 119.377 90.1607 119.618 87.3532 120.033C83.3559 120.635 78.8371 120.528 74.6526 119.752C72.1259 119.27 68.9039 117.853 64.8932 115.445C61.8986 113.653 58.9039 112.089 56.7515 111.193C55.1472 110.537 51.8183 109.695 49.198 109.293C47.4066 109.026 46.2969 108.946 43.5028 108.892C40.321 108.825 36.7381 108.986 36.1766 109.2C35.7354 109.36 35.9627 108.932 36.9386 107.729C42.0456 101.389 45.8825 93.3116 47.9012 84.6319C48.7702 80.8871 49.452 76.0324 49.452 73.6117V72.5953L50.0937 72.3278C50.4413 72.1807 51.6846 71.726 52.8611 71.3248C55.8023 70.3351 56.2568 70.1478 58.944 68.9174C60.7756 68.0883 62.2194 67.3126 63.289 66.5904C64.2916 65.8949 65.0537 65.1861 64.8665 65.0791C64.813 65.0524 64.1312 64.825 63.3558 64.5976C58.4761 63.0998 55.6954 61.7089 53.3691 59.569C51.7515 58.0979 50.6151 56.0651 50.6151 54.6875C50.6151 51.8656 50.3477 43.4801 50.1873 41.3804C49.5991 33.8375 48.5429 28.2873 46.8451 23.7268C45.5483 20.2496 42.9279 16.0903 40.8825 14.2446C40.1071 13.5492 37.5937 11.6635 36.4841 10.9413C36.083 10.6738 34.8798 9.99172 33.8102 9.40327C30.976 7.85188 29.7461 6.52786 29.9867 5.29745C30.2942 3.75945 31.8985 2.62267 35.214 1.60625C37.4466 0.924174 38.7033 0.683446 41.5643 0.389218C43.075 0.22873 44.3718 0.0816127 44.4386 0.0548648C44.5188 0.0281169 46.1098 0.00136973 47.9814 0.00136973C50.4413 -0.0120042 52.1659 0.0682388 54.198 0.255474ZM49.9066 119.899C52.6873 120.233 55.174 120.849 57.9681 121.865C59.5323 122.453 64.1579 124.7 65.1339 125.356C65.4146 125.543 66.0965 125.957 66.6713 126.252C67.2328 126.559 68.0617 127.041 68.5029 127.308C70.8023 128.739 74.4387 130.157 76.8585 130.585C80.1607 131.16 86.4575 131.2 89.6259 130.665C91.3372 130.371 94.1046 129.502 95.642 128.779C97.0725 128.097 99.9468 126.533 100.923 125.904C101.404 125.61 102.273 125.088 102.861 124.781C103.45 124.46 104.359 123.965 104.867 123.684C107.126 122.467 110.214 121.29 113.022 120.608C115.228 120.073 116.966 119.846 120.174 119.672C126.23 119.337 131.658 119.979 135.883 121.504C136.404 121.691 137.166 121.972 137.581 122.119C138.677 122.494 142.688 124.486 144.212 125.409C145.976 126.479 149.131 128.285 149.787 128.619C150.696 129.06 153.209 129.943 154.613 130.304C158.303 131.254 165.709 131.32 169.706 130.451C172.059 129.93 174.853 128.766 177.795 127.081C178.57 126.64 180.255 125.677 181.538 124.941C183.597 123.764 186.083 122.494 186.324 122.494C186.378 122.494 186.605 122.4 186.819 122.28C187.648 121.852 190.682 120.889 192.487 120.501C194.8 119.993 197.019 119.725 199.934 119.605C201.792 119.538 202.34 119.551 203.022 119.725C204.493 120.113 205.469 120.942 206.11 122.36C206.551 123.296 206.618 124.232 206.351 125.275C206.084 126.332 205.629 127.041 204.8 127.696C203.704 128.565 202.902 128.793 200.522 128.926C193.838 129.301 190.308 130.478 183.677 134.517C183.049 134.891 181.351 135.801 179.907 136.523C174.88 139.037 170.923 140.067 164.787 140.428C161.23 140.642 156.431 140.281 152.902 139.545C150.696 139.077 146.337 137.432 144.238 136.269C142.915 135.533 141.244 134.57 139.693 133.647C136.19 131.575 131.939 129.849 129.198 129.381C127.674 129.127 124.72 128.913 122.621 128.913C120.642 128.913 117.139 129.247 116.27 129.515C115.923 129.622 115.535 129.716 115.401 129.716C115.121 129.716 112.153 130.652 111.484 130.959C108.623 132.243 108.704 132.203 105.201 134.276C102.046 136.135 98.6367 137.767 96.15 138.596C94.0912 139.278 91.9655 139.799 90.6286 139.973C90.3746 140 89.4388 140.12 88.5564 140.241C86.043 140.575 80.7489 140.535 77.8746 140.161C74.7997 139.773 73.2623 139.438 71.043 138.676C67.7943 137.553 65.8157 136.657 63.3825 135.172C62.928 134.891 62.5269 134.664 62.4868 134.664C62.4601 134.664 61.6045 134.169 60.5884 133.581C57.9547 132.029 55.8424 131.04 53.4627 130.264C50.9894 129.461 49.7595 129.221 47.1793 129.047C39.8263 128.552 34.9332 129.515 29.1979 132.578C28.3958 133.019 27.3396 133.621 26.8584 133.928C25.6952 134.664 22.4599 136.429 20.8557 137.165C18.9439 138.061 15.254 139.278 13.2888 139.666C9.91979 140.308 5.6016 140.669 4.13101 140.415C2.32619 140.107 1.18982 139.318 0.494631 137.9C0.0935601 137.098 0.0534536 136.897 0.0534536 135.801C0.0534536 134.758 0.106929 134.49 0.427785 133.795C0.922439 132.751 1.87164 131.842 2.82084 131.534C3.62298 131.267 4.87967 131.12 7.87434 130.933C12.0588 130.652 14.2113 130.036 18.4091 127.897C19.8931 127.134 21.5107 126.252 22.0188 125.931C23.115 125.208 26.2969 123.483 27.7273 122.828C31.9118 120.889 35.8691 119.939 40.7621 119.685C43.4359 119.538 47.8611 119.645 49.9066 119.899ZM48.4092 138.689C51.8183 139.037 55.6151 139.933 58.4761 141.043C60.936 141.993 61.5242 142.3 66.297 145.029C68.7168 146.42 71.6981 147.958 72.8478 148.412C75.6553 149.522 79.1045 150.084 83.3425 150.097C86.6045 150.111 88.1955 149.964 90.7623 149.375C93.6901 148.707 96.658 147.49 99.2516 145.898C108.142 140.415 114.198 138.542 122.968 138.542C127.26 138.542 130.535 138.944 133.877 139.893C136.364 140.575 136.15 140.508 139.359 141.886C140.094 142.207 140.976 142.621 141.311 142.809C141.645 142.996 142.353 143.397 142.888 143.691C143.423 143.986 144.559 144.641 145.415 145.149C147.367 146.299 151.137 148.185 152.193 148.546C154.746 149.429 156.912 149.843 159.907 150.057C165.335 150.445 170.883 149.549 174.92 147.637C175.883 147.182 177.126 146.5 179.466 145.122C179.907 144.868 180.656 144.44 181.137 144.186C181.618 143.932 182.153 143.611 182.34 143.491C182.527 143.357 183.423 142.889 184.346 142.448C189.412 139.987 194.239 138.77 199.733 138.582C202.728 138.475 203.276 138.556 204.292 139.251C205.322 139.96 205.789 140.548 206.15 141.551C206.872 143.611 206.244 145.684 204.533 146.861C203.49 147.597 202.795 147.757 199.72 147.971C193.49 148.399 190.134 149.589 183.075 153.869C179.345 156.129 175.255 157.774 171.297 158.63C169.867 158.924 169.68 158.938 162.554 158.938C154.947 158.938 154.653 158.924 152.193 158.322C148.958 157.533 145.535 156.009 140.495 153.133C139.426 152.518 138.035 151.729 137.393 151.355C133.329 149.054 128.597 147.904 123.169 147.904C119.733 147.904 116.712 148.265 114.091 149.001C113.423 149.188 110.188 150.485 109.439 150.86C108.69 151.248 104.733 153.481 104.091 153.882C103.476 154.27 103.102 154.484 101.458 155.367C99.118 156.624 95.6019 157.908 92.7008 158.563L91.0965 158.924L84.412 158.978C79.9067 159.005 77.2997 158.978 76.3906 158.871C72.0457 158.376 67.7275 156.704 61.6178 153.173C56.9387 150.459 55.1472 149.616 52.5937 148.947C49.813 148.225 48.2622 148.011 45.214 147.944C38.1552 147.77 34.1846 148.76 27.9279 152.291C26.9386 152.839 25.7086 153.561 25.1872 153.882C22.1658 155.781 17.353 157.761 13.8236 158.55C12.3396 158.871 11.9251 158.911 8.31551 158.964C3.48929 159.058 2.60694 158.991 1.83153 158.47C1.10961 157.988 0.427786 156.985 0.187143 156.049C-0.427832 153.775 0.49463 151.716 2.63367 150.592C3.06148 150.365 4.18448 150.204 6.13636 150.111C9.42514 149.937 11.7915 149.522 14.6257 148.6C16.4439 148.011 18.1551 147.142 22.3797 144.694C26.1231 142.514 27.5402 141.819 29.8664 140.976C32.2995 140.107 32.7541 139.973 34.7461 139.492C36.4841 139.091 36.7648 139.037 39.2247 138.743C41.0563 138.529 46.5777 138.489 48.4092 138.689Z" fill="white"/>
</svg>
